<?xml version="1.0" standalone="no"?><!DOCTYPE svg PUBLIC "-//W3C//DTD SVG 1.1//EN"
        "http://www.w3.org/Graphics/SVG/1.1/DTD/svg11.dtd">
<svg t="1515563024717" class="icon" style="" viewBox="0 0 1024 1024" version="1.1" xmlns="http://www.w3.org/2000/svg"
     p-id="1143"
     width="200" height="200">
    <defs>
        <style type="text/css"></style>
    </defs>
    <path d="M602.121 40.481l251.444 149.846c58.589 34.94 94.666 99.438 94.631 169.244v299.654c0.035 69.799-36.042 134.314-94.631 169.248L602.121 978.129c-58.619 34.902-130.831 34.902-189.451 0L161.04 828.281c-58.602-34.938-94.661-99.449-94.631-169.254V359.57c-0.029-69.806 36.029-134.304 94.631-169.244L412.67 40.481c58.62-34.903 130.832-34.903 189.451 0"
          fill="#28AE7F" p-id="1144"></path>
    <path d="M504.582 541.596c-2.893 0.061-5.736-0.576-8.369-1.832l-130.966-68.23c-5.583-3.074-9.133-9.052-9.314-15.641V320.652c0.182-6.589 3.731-12.568 9.314-15.641l131.366-68.23a18.594 18.594 0 0 1 16.903 0l131.354 68.23c5.564 3.072 9.132 9.051 9.32 15.641v135.241c-0.188 6.589-3.756 12.567-9.32 15.641l-131.738 68.23c-2.631 1.256-5.476 1.893-8.367 1.832M371.276 320.851v135.042a3.24 3.24 0 0 0 0 1.218l131.167 68.243a5.601 5.601 0 0 0 2.908 0L637.27 456.9a2.637 2.637 0 0 0 0-1.205V319.426L506.133 251.4a4.944 4.944 0 0 0-2.92 0l-131.349 68.237a2.99 2.99 0 0 0 0 1.214"
          fill="#FFFFFF" p-id="1145"></path>
    <path d="M504.582 400.654a18.588 18.588 0 0 1-8.369-1.821l-136.009-70.864 6.999-14.631 136.01 70.864a5.327 5.327 0 0 0 2.92 0l135.997-70.864 7.011 14.631-136.01 70.864a18.593 18.593 0 0 1-8.367 1.821"
          fill="#FFFFFF" p-id="1146"></path>
    <path d="M504.582 399.64l-136.026-70.864a3.001 3.001 0 0 0-3.473-0.1c-1.082 0.727-1.617 2.05-1.387 3.356v123.861c0.152 3.458 1.986 6.6 4.86 8.323l131.348 68.23a3.034 3.034 0 0 0 3.126 0c0.964-0.578 1.552-1.674 1.552-2.838V405.73c-0.153-3.45-1.988-6.589-4.86-8.313l-136.026-70.885"
          fill="#FFFFFF" p-id="1147"></path>
    <path d="M501.273 539.145a9.462 9.462 0 0 1-4.66-1.227l-131.366-69.232c-4.901-2.706-8.027-7.992-8.163-13.811V330.997c-0.112-3.417 1.522-6.674 4.272-8.522a7.943 7.943 0 0 1 3.891-0.197v-1.427l136.026 70.876 4.86 2.438v1.009c2.32 2.832 3.632 6.43 3.691 10.148v124.285c0.104 3.416-1.506 6.668-4.273 8.541-1.34 0.867-2.891 1.383-4.479 1.416l0.201-0.419zM368.754 336.489v119.823a4.513 4.513 0 0 0 1.734 2.832l127.864 66.408V405.73a4.486 4.486 0 0 0-1.739-2.834l-127.859-66.407z"
          fill="#FFFFFF" p-id="1148"></path>
    <path d="M645.82 760.926c-2.922 0.062-5.841-0.576-8.551-1.834l-131.338-68.229c-5.581-3.092-9.149-9.051-9.319-15.66V539.982c0.17-6.598 3.738-12.568 9.319-15.641l131.338-68.243c5.354-2.691 11.595-2.691 16.92 0l131.378 68.243c5.57 3.072 9.131 9.043 9.32 15.641v135.221c-0.189 6.609-3.75 12.568-9.32 15.66l-131.378 68.229a18.782 18.782 0 0 1-8.369 1.834M512.549 539.982v136.256l131.15 68.221a4.996 4.996 0 0 0 2.921 0l131.354-68.221a2.843 2.843 0 0 0 0-1.225v-136.25l-130.555-68.05a5.318 5.318 0 0 0-2.949 0l-131.339 68.236a3.39 3.39 0 0 0 0 1.23"
          fill="#FFFFFF" p-id="1149"></path>
    <path d="M645.82 619.967c-2.922 0.068-5.841-0.51-8.551-1.805l-135.997-70.896 7-14.629 136.008 70.895a5.59 5.59 0 0 0 2.927 0l136.021-70.895 6.981 14.629-136.02 70.896c-2.616 1.227-5.477 1.873-8.369 1.805"
          fill="#FFFFFF" p-id="1150"></path>
    <path d="M645.82 618.744l-135.996-70.83c-1.029-0.775-2.41-0.838-3.475-0.137-1.074 0.715-1.615 2.07-1.386 3.355v123.881c0.159 3.477 1.985 6.607 4.86 8.311l131.354 68.256c1.01 0.775 2.426 0.775 3.473 0.068 1.074-0.711 1.598-2.002 1.386-3.322V624.451c-0.158-3.447-2.003-6.609-4.858-8.348l-136.01-70.836"
          fill="#FFFFFF" p-id="1151"></path>
    <path d="M642.929 758.285a10.22 10.22 0 0 1-4.672-1.227l-131.153-68.029c-4.861-2.805-7.952-8.025-8.164-13.826V551.324c-0.111-3.41 1.522-6.637 4.273-8.508a8.052 8.052 0 0 1 3.508-1.221v-1.416l136.026 70.865 4.861 2.414v1.033a16.633 16.633 0 0 1 3.69 10.148V748.52c0.116 3.447-1.54 6.668-4.309 8.539-1.324 0.902-2.862 1.357-4.432 1.418l0.372-0.192zM510.211 555.389v119.814c0.199 1.164 0.829 2.193 1.752 2.838l127.862 66.418V624.641c-0.216-1.127-0.834-2.154-1.756-2.832l-127.858-66.42z"
          fill="#FFFFFF" p-id="1152"></path>
    <path d="M360.792 760.926a18.832 18.832 0 0 1-8.369-1.834l-131.351-68.229c-5.583-3.092-9.15-9.051-9.334-15.66V539.982c0.184-6.598 3.751-12.568 9.334-15.641l131.351-68.243a18.728 18.728 0 0 1 16.914 0l131.937 68.243c5.583 3.072 9.137 9.043 9.321 15.641v135.221c-0.184 6.609-3.738 12.568-9.321 15.66l-132.136 68.229a18.777 18.777 0 0 1-8.346 1.834M227.483 539.982v135.031a3.32 3.32 0 0 0 0 1.225l131.17 68.221a4.936 4.936 0 0 0 2.903 0l131.354-68.221a3.32 3.32 0 0 0 0-1.225V539.982a2.697 2.697 0 0 0 0-1.219l-130.567-68.05a5.237 5.237 0 0 0-2.926 0l-131.349 68.236a3.346 3.346 0 0 0 0 1.23"
          fill="#FFFFFF" p-id="1153"></path>
    <path d="M360.792 619.967c-2.892 0.068-5.736-0.578-8.369-1.805l-136.011-70.896 6.996-14.629 136.009 70.895c0.959 0.26 1.975 0.26 2.926 0l136.009-70.895 7 14.629-136.015 70.896c-2.626 1.227-5.471 1.873-8.363 1.805"
          fill="#FFFFFF" p-id="1154"></path>
    <path d="M360.792 618.744l-136.029-70.83c-1.031-0.775-2.412-0.838-3.475-0.137-1.076 0.715-1.617 2.07-1.384 3.355v123.881c0.155 3.477 1.983 6.607 4.859 8.311l131.351 68.256c1.047 0.775 2.417 0.775 3.492 0.068 1.057-0.711 1.598-2.002 1.368-3.322V624.451c-0.152-3.447-1.986-6.609-4.86-8.348l-136.012-70.836"
          fill="#FFFFFF" p-id="1155"></path>
    <path d="M357.866 758.285a10.11 10.11 0 0 1-4.655-1.227l-131.372-68.252c-4.904-2.709-8.025-7.992-8.148-13.793v-123.88c-0.123-3.416 1.507-6.668 4.275-8.502 1.06-0.715 2.259-1.096 3.49-1.23v-1.418l136.027 70.865 4.859 2.422v1.025c2.321 2.842 3.626 6.418 3.69 10.156v123.875c0.153 3.451-1.492 6.703-4.278 8.535a8.234 8.234 0 0 1-4.473 1.424h0.585zM224.963 555.191v119.822c0.199 1.156 0.831 2.191 1.736 2.83l127.864 66.42V624.451a4.45 4.45 0 0 0-1.751-2.84l-127.849-66.42z"
          fill="#FFFFFF" p-id="1156"></path>
</svg>