<?xml version="1.0" standalone="no"?><!DOCTYPE svg PUBLIC "-//W3C//DTD SVG 1.1//EN"
        "http://www.w3.org/Graphics/SVG/1.1/DTD/svg11.dtd">
<svg t="1515403151084" class="icon" style="" viewBox="0 0 1024 1024" version="1.1" xmlns="http://www.w3.org/2000/svg"
     p-id="1473"
     width="200" height="200">
    <defs>
        <style type="text/css"></style>
    </defs>
    <path d="M887.466667 0H136.533333C59.733333 0 0 59.733333 0 136.533333v571.733334c0 72.533333 59.733333 136.533333 136.533333 136.533333h238.933334v115.2H302.933333c-8.533333 0-12.8 4.266667-21.333333 8.533333-4.266667 4.266667-8.533333 12.8-8.533333 21.333334v12.8c0 8.533333 4.266667 12.8 8.533333 17.066666 4.266667 0 12.8 4.266667 17.066667 4.266667h422.4c8.533333 0 12.8-4.266667 21.333333-8.533333 4.266667-4.266667 8.533333-12.8 8.533333-21.333334v-8.533333c0-8.533333-4.266667-17.066667-8.533333-21.333333-4.266667-4.266667-12.8-8.533333-21.333333-8.533334h-72.533334v-115.2h238.933334c72.533333 0 136.533333-59.733333 136.533333-136.533333V136.533333C1024 59.733333 964.266667 0 887.466667 0zM68.266667 136.533333c0-38.4 29.866667-68.266667 68.266666-68.266666h755.2c38.4 0 68.266667 29.866667 68.266667 68.266666v435.2H68.266667V136.533333z m512 819.2h-140.8v-115.2h140.8v115.2z m375.466666-251.733333c0 38.4-29.866667 68.266667-68.266666 68.266667H136.533333c-38.4 0-68.266667-29.866667-68.266666-68.266667v-68.266667h887.466666v68.266667z m-448 34.133333c17.066667 0 34.133333-17.066667 34.133334-34.133333s-17.066667-34.133333-34.133334-34.133333-34.133333 17.066667-34.133333 34.133333c4.266667 21.333333 17.066667 34.133333 34.133333 34.133333z"
          p-id="1474"></path>
</svg>