<?xml version="1.0" standalone="no"?><!DOCTYPE svg PUBLIC "-//W3C//DTD SVG 1.1//EN"
        "http://www.w3.org/Graphics/SVG/1.1/DTD/svg11.dtd">
<svg t="1515661846256" class="icon" style="" viewBox="0 0 1024 1024" version="1.1" xmlns="http://www.w3.org/2000/svg"
     p-id="1034"
     width="200" height="200">
    <defs>
        <style type="text/css"></style>
    </defs>
    <path d="M978.606186 200.57732 814.97732 35.892784c-35.892784-35.892784-95.010309-35.892784-130.903093 0L488.775258 231.191753c-35.892784 35.892784-35.892784 93.954639 0 130.903093l65.451546 65.451546L425.435052 557.393814l-65.451546-65.451546c-35.892784-35.892784-95.010309-35.892784-130.903093 0L33.781443 686.185567c-35.892784 35.892784-35.892784 93.954639 0 130.903093l164.684536 164.684536c35.892784 35.892784 95.010309 35.892784 130.903093 0l195.298969-195.298969c35.892784-35.892784 35.892784-93.954639 0-130.903093l-65.451546-65.451546 129.847423-129.847423 65.451546 65.451546c35.892784 35.892784 95.010309 35.892784 130.903093 0l195.298969-195.298969C1015.554639 294.531959 1015.554639 236.470103 978.606186 200.57732zM490.886598 688.296907c17.946392 17.946392 17.946392 47.505155 0 65.451546L296.643299 947.991753c-17.946392 17.946392-47.505155 17.946392-65.451546 0L67.562887 784.362887c-17.946392-17.946392-17.946392-47.505155 0-65.451546l195.298969-195.298969c17.946392-17.946392 47.505155-17.946392 65.451546 0l65.451546 65.451546-81.286598 81.286598L295.587629 687.241237l32.725773 32.725773 15.835052-15.835052 81.286598-81.286598L490.886598 688.296907zM946.936082 298.754639 751.637113 492.997938c-17.946392 17.946392-47.505155 17.946392-65.451546 0l-65.451546-65.451546 81.286598-81.286598 15.835052-15.835052-32.725773-32.725773-15.835052 15.835052-81.286598 81.286598-65.451546-65.451546c-17.946392-17.946392-17.946392-47.505155 0-65.451546L716.8 68.618557c17.946392-17.946392 47.505155-17.946392 65.451546 0l164.684536 164.684536C964.882474 251.249485 964.882474 279.752577 946.936082 298.754639z"
          p-id="1035"></path>
</svg>