<?xml version="1.0" standalone="no"?><!DOCTYPE svg PUBLIC "-//W3C//DTD SVG 1.1//EN"
        "http://www.w3.org/Graphics/SVG/1.1/DTD/svg11.dtd">
<svg t="1515468146267" class="icon" style="" viewBox="0 0 1024 1024" version="1.1" xmlns="http://www.w3.org/2000/svg"
     p-id="2485"
     width="200" height="200">
    <defs>
        <style type="text/css"></style>
    </defs>
    <path d="M0 0" p-id="2486"></path>
    <path d="M170.666667 665.6v170.666667h682.666666v-170.666667H170.666667z m384 136.533333h-256c-11.810133 0-21.333333-5.256533-21.333334-17.066666s9.5232-17.066667 21.333334-17.066667h256c11.810133 0 21.333333 5.256533 21.333333 17.066667s-9.5232 17.066667-21.333333 17.066666zM682.666667 814.933333c-35.293867 0-64-28.672-64-64s28.706133-64 64-64 64 28.706133 64 64-28.706133 64-64 64z"
          p-id="2487"></path>
    <path d="M704 750.933333a21.321956 21.321956 0 1 1-42.655289 0.011378A21.321956 21.321956 0 0 1 704 750.933333zM170.666667 460.8v170.666667h682.666666v-170.666667H170.666667z m384 136.533333h-256c-11.810133 0-21.333333-5.256533-21.333334-17.066666s9.5232-17.066667 21.333334-17.066667h256c11.810133 0 21.333333 5.256533 21.333333 17.066667s-9.5232 17.066667-21.333333 17.066666zM682.666667 610.133333A64.045511 64.045511 0 0 1 618.666667 546.133333c0-35.328 28.706133-64 64-64s64 28.706133 64 64A64.056889 64.056889 0 0 1 682.666667 610.133333z"
          p-id="2488"></path>
    <path d="M704 546.133333a21.321956 21.321956 0 1 1-42.655289 0.011378A21.321956 21.321956 0 0 1 704 546.133333zM704 145.066667a21.321956 21.321956 0 1 1-42.655289 0.011377 21.321956 21.321956 0 0 1 42.655289-0.011377z"
          p-id="2489"></path>
    <path d="M853.333333 221.866667V38.4A21.321956 21.321956 0 0 0 832 17.066667h-640A21.2992 21.2992 0 0 0 170.666667 38.4V221.866667h682.666666zM682.666667 81.066667c35.293867 0 64 28.706133 64 64S717.960533 209.066667 682.666667 209.066667s-64-28.672-64-64S647.3728 81.066667 682.666667 81.066667zM298.666667 153.6h256c11.810133 0 21.333333 5.256533 21.333333 17.066667s-9.5232 17.066667-21.333333 17.066666h-256c-11.810133 0-21.333333-5.256533-21.333334-17.066666s9.5232-17.066667 21.333334-17.066667zM704 324.266667a21.321956 21.321956 0 1 1-42.655289 0.011377 21.321956 21.321956 0 0 1 42.655289-0.011377zM170.666667 870.4v115.2c0 11.810133 9.5232 21.333333 21.333333 21.333333h640A21.2992 21.2992 0 0 0 853.333333 985.6V870.4H170.666667z"
          p-id="2490"></path>
    <path d="M170.666667 256v170.666667h682.666666v-170.666667H170.666667z m384 102.4h-256c-11.810133 0-21.333333-5.256533-21.333334-17.066667s9.5232-17.066667 21.333334-17.066666h256c11.810133 0 21.333333 5.256533 21.333333 17.066666s-9.5232 17.066667-21.333333 17.066667zM682.666667 388.266667c-35.293867 0-64-28.672-64-64s28.706133-64 64-64 64 28.706133 64 64-28.706133 64-64 64z"
          p-id="2491"></path>
</svg>