<?xml version="1.0" standalone="no"?><!DOCTYPE svg PUBLIC "-//W3C//DTD SVG 1.1//EN"
        "http://www.w3.org/Graphics/SVG/1.1/DTD/svg11.dtd">
<svg t="1515662104955" class="icon" style="" viewBox="0 0 1024 1024" version="1.1" xmlns="http://www.w3.org/2000/svg"
     p-id="4431"
     width="200" height="200">
    <defs>
        <style type="text/css"></style>
    </defs>
    <path d="M278.624605 169.881163H92.618682a22.425737 22.425737 0 0 1-22.428727-22.428728c0-12.389629 10.039098-22.428727 22.428727-22.428727H278.624605c12.389629 0 22.428727 10.039098 22.428727 22.428727a22.428727 22.428727 0 0 1-22.428727 22.428728zM278.624605 247.96603H92.618682a22.425737 22.425737 0 0 1-22.428727-22.428728c0-12.389629 10.039098-22.428727 22.428727-22.428727H278.624605c12.389629 0 22.428727 10.039098 22.428727 22.428727s-10.039098 22.428727-22.428727 22.428728zM278.624605 326.050897H92.618682a22.425737 22.425737 0 0 1-22.428727-22.428728c0-12.389629 10.039098-22.428727 22.428727-22.428727H278.624605c12.389629 0 22.428727 10.039098 22.428727 22.428727s-10.039098 22.428727-22.428727 22.428728zM278.624605 742.806558H92.618682a22.425737 22.425737 0 0 1-22.428727-22.428727c0-12.389629 10.039098-22.428727 22.428727-22.428728H278.624605c12.389629 0 22.428727 10.039098 22.428727 22.428728a22.428727 22.428727 0 0 1-22.428727 22.428727zM278.624605 820.897406H92.618682a22.425737 22.425737 0 0 1-22.428727-22.428727c0-12.389629 10.039098-22.428727 22.428727-22.428728H278.624605c12.389629 0 22.428727 10.039098 22.428727 22.428728s-10.039098 22.428727-22.428727 22.428727zM278.624605 898.982273H92.618682a22.425737 22.425737 0 0 1-22.428727-22.428727c0-12.389629 10.039098-22.428727 22.428727-22.428728H278.624605c12.389629 0 22.428727 10.039098 22.428727 22.428728s-10.039098 22.428727-22.428727 22.428727zM92.612701 557.395744c-5.921184 0-11.692843-2.392398-15.852624-6.576103a22.587224 22.587224 0 0 1-6.576103-15.852624 22.608157 22.608157 0 0 1 6.576103-15.879539c4.186696-4.156791 9.958355-6.549188 15.852624-6.549189s11.692843 2.395388 15.852625 6.549189a22.605167 22.605167 0 0 1 6.576103 15.879539c0 5.89427-2.395388 11.692843-6.576103 15.852624a22.479566 22.479566 0 0 1-15.852625 6.576103zM605.004457 169.881163H418.998534a22.425737 22.425737 0 0 1-22.428728-22.428728c0-12.389629 10.039098-22.428727 22.428728-22.428727h186.005923a22.428727 22.428727 0 0 1 0 44.857455zM605.004457 247.96603H418.998534a22.425737 22.425737 0 0 1-22.428728-22.428728c0-12.389629 10.039098-22.428727 22.428728-22.428727h186.005923c12.389629 0 22.428727 10.039098 22.428727 22.428727a22.428727 22.428727 0 0 1-22.428727 22.428728zM605.004457 326.050897H418.998534a22.425737 22.425737 0 0 1-22.428728-22.428728c0-12.389629 10.039098-22.428727 22.428728-22.428727h186.005923c12.389629 0 22.428727 10.039098 22.428727 22.428727a22.428727 22.428727 0 0 1-22.428727 22.428728zM605.004457 742.806558H418.998534a22.425737 22.425737 0 0 1-22.428728-22.428727c0-12.389629 10.039098-22.428727 22.428728-22.428728h186.005923a22.428727 22.428727 0 0 1 0 44.857455zM605.004457 820.897406H418.998534a22.425737 22.425737 0 0 1-22.428728-22.428727c0-12.389629 10.039098-22.428727 22.428728-22.428728h186.005923c12.389629 0 22.428727 10.039098 22.428727 22.428728a22.428727 22.428727 0 0 1-22.428727 22.428727zM605.004457 898.982273H418.998534a22.425737 22.425737 0 0 1-22.428728-22.428727c0-12.389629 10.039098-22.428727 22.428728-22.428728h186.005923c12.389629 0 22.428727 10.039098 22.428727 22.428728a22.428727 22.428727 0 0 1-22.428727 22.428727zM418.995543 557.395744c-5.921184 0-11.692843-2.392398-15.852624-6.576103a22.5633 22.5633 0 0 1-6.576103-15.852624c0-5.921184 2.389407-11.689853 6.576103-15.879539a22.617129 22.617129 0 0 1 15.852624-6.549189c5.888289 0 11.692843 2.395388 15.846644 6.549189a22.584233 22.584233 0 0 1 6.582084 15.879539 22.458632 22.458632 0 0 1-22.428728 22.428727z"
          p-id="4432"></path>
    <path d="M1001.571273 47.375453H22.428727a22.425737 22.425737 0 0 0-22.428727 22.428728v884.391638c0 12.389629 10.039098 22.428727 22.428727 22.428728h979.142546c12.389629 0 22.428727-10.039098 22.428727-22.428728V69.804181c0-12.389629-10.039098-22.428727-22.428727-22.428728zM326.379852 931.767092H44.857455V92.232908h281.522397v839.534184z m44.857454-839.534184h281.528378v839.534184h-281.528378V92.232908z m607.905239 839.534184h-281.522397V92.232908h281.522397v839.534184z"
          p-id="4433"></path>
    <path d="M931.387299 169.881163H745.381376a22.425737 22.425737 0 0 1-22.428727-22.428728c0-12.389629 10.039098-22.428727 22.428727-22.428727h186.005923c12.389629 0 22.428727 10.039098 22.428727 22.428727a22.428727 22.428727 0 0 1-22.428727 22.428728zM931.387299 247.96603H745.381376a22.425737 22.425737 0 0 1-22.428727-22.428728c0-12.389629 10.039098-22.428727 22.428727-22.428727h186.005923c12.389629 0 22.428727 10.039098 22.428727 22.428727s-10.039098 22.428727-22.428727 22.428728zM931.387299 326.050897H745.381376a22.425737 22.425737 0 0 1-22.428727-22.428728c0-12.389629 10.039098-22.428727 22.428727-22.428727h186.005923c12.389629 0 22.428727 10.039098 22.428727 22.428727s-10.039098 22.428727-22.428727 22.428728z"
          p-id="4434"></path>
    <path d="M931.387299 742.806558H745.381376a22.425737 22.425737 0 0 1-22.428727-22.428727c0-12.389629 10.039098-22.428727 22.428727-22.428728h186.005923c12.389629 0 22.428727 10.039098 22.428727 22.428728a22.428727 22.428727 0 0 1-22.428727 22.428727zM931.387299 820.897406H745.381376a22.425737 22.425737 0 0 1-22.428727-22.428727c0-12.389629 10.039098-22.428727 22.428727-22.428728h186.005923c12.389629 0 22.428727 10.039098 22.428727 22.428728s-10.039098 22.428727-22.428727 22.428727zM931.387299 898.982273H745.381376a22.425737 22.425737 0 0 1-22.428727-22.428727c0-12.389629 10.039098-22.428727 22.428727-22.428728h186.005923c12.389629 0 22.428727 10.039098 22.428727 22.428728s-10.039098 22.428727-22.428727 22.428727z"
          p-id="4435"></path>
    <path d="M745.375395 557.395744c-5.918194 0-11.692843-2.392398-15.846644-6.576103a22.569281 22.569281 0 0 1-6.582083-15.852624c0-5.921184 2.395388-11.689853 6.582083-15.879539a22.602176 22.602176 0 0 1 15.846644-6.549189c5.89427 0 11.692843 2.395388 15.852625 6.549189a22.578252 22.578252 0 0 1 6.576102 15.879539c0 5.89427-2.389407 11.692843-6.576102 15.852624a22.476575 22.476575 0 0 1-15.852625 6.576103z"
          p-id="4436"></path>
</svg>